<svg width="169" height="44" viewBox="0 0 169 44" fill="none" xmlns="http://www.w3.org/2000/svg">
<path d="M52.2441 18.9643V15.2017C52.2552 15.0895 52.2437 14.9762 52.2103 14.8684C52.1769 14.7607 52.1222 14.6608 52.0495 14.5746C51.8443 14.4419 51.6009 14.381 51.3575 14.4016H48.4598C45.8866 14.4016 44.5891 13.1907 44.5891 10.7255V5.96818C44.5891 3.56789 45.9731 2.35693 48.7193 2.35693H52.7414C55.4877 2.35693 56.8717 3.56789 56.8717 5.96818V8.69282H52.1792V6.63852C52.1792 6.07629 51.8765 5.81681 51.2926 5.81681H50.1682C49.5843 5.81681 49.2816 6.07629 49.2816 6.63852V10.3146C49.2721 10.4234 49.2845 10.533 49.3179 10.637C49.3513 10.7409 49.4051 10.8372 49.4762 10.9201C49.6813 11.0528 49.9247 11.1137 50.1682 11.0931H53.0009C54.3849 11.0931 55.4012 11.3959 56.0067 12.0013C56.6122 12.6068 56.9365 13.4934 56.9365 14.6611V19.5914C56.9365 22.0133 55.5526 23.2243 52.8063 23.2243H48.8274C46.0596 23.2243 44.654 22.0133 44.654 19.5914V16.8884H49.3464V18.9643C49.3464 19.5049 49.6492 19.786 50.233 19.786H51.3575C51.9413 19.786 52.2441 19.5049 52.2441 18.9643Z" fill="#0F67AD"/>
<path d="M65.5213 6.98462H66.3431C68.9163 6.98462 70.1922 8.19557 70.1922 10.6391V19.5915C70.1922 22.0134 68.9163 23.2244 66.3431 23.2244H65.5213C64.159 23.2244 63.2941 22.7054 62.9697 21.6242V27.5925H58.407V6.98462H62.9048V8.82268C63.2076 7.61172 64.0942 6.98462 65.5213 6.98462ZM65.5862 18.9644V11.2662C65.5862 10.704 65.3051 10.4445 64.6996 10.4445H63.9212C63.2941 10.4445 62.9697 10.7905 62.9697 11.4825V18.7266C62.9697 19.4402 63.2941 19.7861 63.9212 19.7861H64.6996C65.3051 19.7861 65.5862 19.505 65.5862 18.9644Z" fill="#0F67AD"/>
<path d="M78.647 6.98462H83.1448V23.2244H78.5821V21.6242C78.2577 22.7054 77.3928 23.2244 75.9872 23.2244H75.2087C72.6354 23.2244 71.3596 22.0134 71.3596 19.5915V10.6391C71.3596 8.19557 72.6354 6.98462 75.2087 6.98462H75.9872C77.4576 6.98462 78.3442 7.61172 78.647 8.82268V6.98462ZM76.8522 19.7861H77.609C78.2577 19.7861 78.5821 19.4402 78.5821 18.7266V11.4825C78.5821 10.7905 78.2577 10.4445 77.609 10.4445H76.8522C76.2467 10.4445 75.9656 10.704 75.9656 11.2662V18.9644C75.9656 19.505 76.2467 19.7861 76.8522 19.7861Z" fill="#0F67AD"/>
<path d="M96.2925 12.8232H91.838V11.2662C91.838 10.704 91.5352 10.4445 90.9514 10.4445H90.108C89.5026 10.4445 89.2214 10.704 89.2214 11.2662V18.9644C89.2214 19.505 89.5026 19.7861 90.108 19.7861H90.9514C91.5352 19.7861 91.838 19.505 91.838 18.9644V17.3859H96.2925V19.5915C96.2925 22.0134 94.9086 23.2244 92.1407 23.2244H88.7889C85.9994 23.2244 84.6155 22.0134 84.6155 19.5915V10.6391C84.6155 8.19557 85.9994 6.98462 88.7889 6.98462H92.1407C94.9086 6.98462 96.2925 8.19557 96.2925 10.6391V12.8232Z" fill="#0F67AD"/>
<path d="M101.396 6.98462H105.094C107.862 6.98462 109.267 8.19557 109.267 10.6391V16.3695H101.612V19.159C101.6 19.268 101.611 19.3782 101.645 19.4826C101.678 19.5869 101.734 19.683 101.807 19.7645C102.004 19.9153 102.252 19.985 102.499 19.9591H103.969C104.09 19.9736 104.212 19.9617 104.328 19.9244C104.444 19.887 104.55 19.8251 104.64 19.7429C104.788 19.5609 104.858 19.3277 104.834 19.0942V18.013H109.224V19.5915C109.224 22.0134 107.84 23.2244 105.072 23.2244H101.396C98.6281 23.2244 97.2441 22.0134 97.2441 19.5915V10.6391C97.2441 8.19557 98.6281 6.98462 101.396 6.98462ZM101.612 13.6881H104.856V11.05C104.865 10.9412 104.853 10.8316 104.819 10.7276C104.786 10.6237 104.732 10.5274 104.661 10.4445C104.471 10.315 104.242 10.254 104.013 10.2715H102.499C102.255 10.2509 102.012 10.3118 101.807 10.4445C101.736 10.5274 101.682 10.6237 101.649 10.7276C101.615 10.8316 101.603 10.9412 101.612 11.05V13.6881Z" fill="#0F67AD"/>
<path d="M115.798 2.35693H124.491C127.258 2.35693 128.642 3.56789 128.642 5.96818V19.5914C128.642 22.0133 127.258 23.2243 124.491 23.2243H115.798V2.35693ZM123.95 19.2022V6.40066C123.95 5.86006 123.669 5.57894 123.063 5.57894H120.49V20.0239H123.063C123.669 20.0239 123.95 19.7428 123.95 19.2022Z" fill="#0F67AD"/>
<path d="M134.286 6.98462H138.006C140.774 6.98462 142.158 8.19557 142.158 10.6391V16.3695H134.524V19.159C134.512 19.268 134.523 19.3782 134.557 19.4826C134.591 19.5869 134.646 19.683 134.719 19.7645C134.916 19.9153 135.164 19.985 135.411 19.9591H136.881C137 19.9828 137.123 19.9769 137.239 19.9418C137.354 19.9067 137.46 19.8436 137.545 19.758C137.631 19.6725 137.694 19.5671 137.729 19.4513C137.764 19.3355 137.77 19.2128 137.746 19.0942V18.013H142.136V19.5915C142.136 22.0134 140.752 23.2244 137.963 23.2244H134.286C131.54 23.2244 130.156 22.0134 130.156 19.5915V10.6391C130.156 8.19557 131.54 6.98462 134.286 6.98462ZM134.524 13.6881H137.768V11.05C137.777 10.9412 137.765 10.8316 137.732 10.7276C137.698 10.6237 137.644 10.5274 137.573 10.4445C137.383 10.315 137.154 10.254 136.925 10.2715H135.411C135.167 10.2509 134.924 10.3118 134.719 10.4445C134.648 10.5274 134.594 10.6237 134.561 10.7276C134.527 10.8316 134.515 10.9412 134.524 11.05V13.6881Z" fill="#0F67AD"/>
<path d="M149.877 19.332V17.494C149.889 17.385 149.878 17.2748 149.845 17.1705C149.811 17.0661 149.756 16.97 149.683 16.8885C149.485 16.7377 149.238 16.6681 148.991 16.6939H147.131C144.385 16.6939 143.022 15.5046 143.022 13.0826V10.6391C143.022 8.19557 144.406 6.98462 147.196 6.98462H149.985C152.753 6.98462 154.137 8.19557 154.137 10.6391V12.0663H149.748V10.8986C149.76 10.7897 149.748 10.6794 149.715 10.5751C149.681 10.4707 149.626 10.3747 149.553 10.2931C149.356 10.1423 149.108 10.0727 148.861 10.0985H148.364C148.117 10.0727 147.869 10.1423 147.672 10.2931C147.598 10.3747 147.543 10.4707 147.51 10.5751C147.476 10.6794 147.465 10.7897 147.477 10.8986V12.8664C147.468 12.9752 147.48 13.0848 147.513 13.1887C147.547 13.2927 147.601 13.389 147.672 13.4719C147.877 13.6046 148.12 13.6655 148.364 13.6449H150.245C152.97 13.6449 154.332 14.8342 154.332 17.2345V19.5915C154.332 22.0134 152.948 23.2244 150.18 23.2244H147.261C144.493 23.2244 143.109 22.0134 143.109 19.5915V18.186H147.585V19.332C147.585 19.8726 147.866 20.1538 148.429 20.1538H148.991C149.575 20.1538 149.877 19.8726 149.877 19.332Z" fill="#0F67AD"/>
<path d="M155.651 23.2244V1.27588H160.214V23.2244H155.651ZM168.453 6.98467L164.863 14.8991L168.453 23.2244H163.652L160.235 14.8991L163.695 6.98467H168.453Z" fill="#0F67AD"/>
<path d="M92.314 40.8264C92.202 40.7158 92.0699 40.6277 91.9247 40.5669C91.7762 40.4958 91.6137 40.459 91.449 40.459C91.2844 40.459 91.1218 40.4958 90.9733 40.5669C90.8276 40.6267 90.6952 40.7148 90.5838 40.8262C90.4725 40.9375 90.3843 41.0699 90.3245 41.2156C90.2082 41.5221 90.2082 41.8606 90.3245 42.1671C90.3854 42.3122 90.4735 42.4443 90.584 42.5563C90.6889 42.6804 90.8225 42.7769 90.9733 42.8374C91.2801 42.9518 91.6179 42.9518 91.9247 42.8374C92.0755 42.7769 92.2091 42.6804 92.314 42.5563C92.4245 42.4443 92.5126 42.3122 92.5735 42.1671C92.6445 42.0185 92.6814 41.856 92.6814 41.6913C92.6814 41.5267 92.6445 41.3641 92.5735 41.2156C92.5126 41.0705 92.4245 40.9384 92.314 40.8264Z" fill="#0F67AD"/>
<path d="M95.9683 29.8628C95.9247 29.8074 95.8688 29.7629 95.8049 29.7329C95.7411 29.7029 95.6712 29.6881 95.6007 29.6898H94.1951C94.1251 29.6912 94.0562 29.7073 93.9929 29.7371C93.9295 29.7669 93.8732 29.8097 93.8275 29.8628C93.7773 29.9095 93.7377 29.9666 93.7116 30.0301C93.6855 30.0935 93.6734 30.1619 93.6762 30.2304V36.3068H73.0251V30.2304C73.0278 30.1619 73.0157 30.0935 72.9896 30.0301C72.9635 29.9666 72.9239 29.9095 72.8737 29.8628C72.828 29.8097 72.7717 29.7669 72.7084 29.7371C72.645 29.7073 72.5761 29.6912 72.5061 29.6898H71.1005C71.0273 29.6908 70.955 29.7066 70.8881 29.7364C70.8212 29.7661 70.761 29.8091 70.7113 29.8628C70.6177 29.9628 70.5639 30.0935 70.5599 30.2304V36.3068H68.0299V30.2304C68.0326 30.1619 68.0206 30.0935 67.9944 30.0301C67.9683 29.9666 67.9288 29.9095 67.8785 29.8628C67.8329 29.8097 67.7765 29.7669 67.7132 29.7371C67.6498 29.7073 67.5809 29.6912 67.5109 29.6898H66.1053C66.0353 29.6912 65.9664 29.7073 65.903 29.7371C65.8397 29.7669 65.7833 29.8097 65.7377 29.8628C65.6875 29.9095 65.6479 29.9666 65.6218 30.0301C65.5957 30.0935 65.5836 30.1619 65.5863 30.2304V36.3068H63.0779V30.2304C63.0807 30.1619 63.0686 30.0935 63.0425 30.0301C63.0163 29.9666 62.9768 29.9095 62.9266 29.8628C62.8768 29.8091 62.8166 29.7661 62.7497 29.7364C62.6828 29.7066 62.6105 29.6908 62.5373 29.6898H61.1317C61.0585 29.6908 60.9863 29.7066 60.9194 29.7364C60.8525 29.7661 60.7923 29.8091 60.7425 29.8628C60.6923 29.9095 60.6527 29.9666 60.6266 30.0301C60.6005 30.0935 60.5884 30.1619 60.5911 30.2304V36.3068H58.4503V34.0579C58.4503 33.0848 58.2341 32.3929 57.8016 31.9604C57.3691 31.5279 56.7637 31.3333 55.9852 31.3333H48.3302C48.401 30.8701 48.5706 30.4276 48.8276 30.0358C49.0152 29.7334 49.266 29.4752 49.5628 29.279C49.8347 29.1104 50.1352 28.9931 50.4494 28.933C50.7715 28.8827 51.0966 28.8538 51.4225 28.8465H52.6334C52.7034 28.8494 52.7732 28.8381 52.8387 28.8134C52.9042 28.7886 52.964 28.7508 53.0145 28.7023C53.065 28.6539 53.1052 28.5956 53.1326 28.5312C53.16 28.4668 53.1741 28.3975 53.174 28.3275V26.9219C53.1727 26.8519 53.1566 26.783 53.1268 26.7197C53.097 26.6563 53.0541 26.6 53.001 26.5543C52.8826 26.4633 52.7393 26.4105 52.5902 26.4029L51.5522 26.3381C50.8541 26.3299 50.1596 26.4395 49.4979 26.6624C48.9057 26.8721 48.3563 27.1871 47.8761 27.5923C47.3961 27.9944 46.9994 28.4866 46.7084 29.0411C46.3907 29.6189 46.1784 30.2486 46.0813 30.9008V33.2362C46.0782 33.308 46.09 33.3797 46.1161 33.4467C46.1422 33.5137 46.1819 33.5746 46.2327 33.6254C46.3434 33.7126 46.481 33.7585 46.6219 33.7552H55.9852V36.2852H45.6704C45.5366 36.2908 45.4101 36.3479 45.3174 36.4446C45.2247 36.5414 45.173 36.6702 45.1731 36.8042V38.2098C45.17 38.2816 45.1818 38.3533 45.2079 38.4203C45.234 38.4873 45.2736 38.5481 45.3245 38.599C45.3669 38.6487 45.4201 38.6882 45.4801 38.7144C45.54 38.7407 45.6051 38.7529 45.6704 38.7504H93.6762C94.0352 38.7577 94.3931 38.7066 94.7357 38.599C95.0252 38.4981 95.2852 38.3273 95.4926 38.1016C95.7175 37.8635 95.8808 37.574 95.9683 37.2583C96.0879 36.8585 96.1463 36.443 96.1413 36.0257V30.2304C96.14 30.1604 96.1239 30.0915 96.0941 30.0282C96.0643 29.9648 96.0214 29.9085 95.9683 29.8628Z" fill="#0F67AD"/>
<path d="M95.2765 40.8264C95.1645 40.7158 95.0324 40.6277 94.8873 40.5669C94.7387 40.4958 94.5762 40.459 94.4115 40.459C94.2469 40.459 94.0844 40.4958 93.9358 40.5669C93.7901 40.6267 93.6577 40.7148 93.5464 40.8262C93.435 40.9375 93.3469 41.0699 93.2871 41.2156C93.2161 41.3641 93.1792 41.5267 93.1792 41.6913C93.1792 41.856 93.2161 42.0185 93.2871 42.1671C93.348 42.3122 93.436 42.4443 93.5466 42.5563C93.6514 42.6804 93.7851 42.7769 93.9358 42.8374C94.2423 42.9537 94.5808 42.9537 94.8873 42.8374C95.038 42.7769 95.1717 42.6804 95.2765 42.5563C95.394 42.4455 95.4894 42.3134 95.5576 42.1671C95.674 41.8606 95.674 41.5221 95.5576 41.2156C95.4894 41.0692 95.394 40.9371 95.2765 40.8264Z" fill="#0F67AD"/>
<path d="M102.391 36.307V32.1335H98.6928C98.6246 32.1337 98.557 32.1204 98.4939 32.0944C98.4308 32.0684 98.3735 32.0303 98.3252 31.9821C98.2749 31.9354 98.2354 31.8784 98.2093 31.8149C98.1831 31.7514 98.171 31.6831 98.1738 31.6145V30.2089C98.1695 30.1402 98.1809 30.0714 98.2071 30.0077C98.2333 29.944 98.2737 29.8871 98.3252 29.8413C98.3688 29.7859 98.4248 29.7415 98.4886 29.7114C98.5524 29.6814 98.6223 29.6667 98.6928 29.6683H102.391C103.191 29.6683 103.796 29.8846 104.229 30.3171C104.661 30.7496 104.856 31.4415 104.856 32.393V36.0475C104.856 36.9989 104.639 37.7126 104.229 38.1234C103.818 38.5343 103.191 38.7721 102.391 38.7721H97.8494C97.7776 38.7752 97.7059 38.7634 97.6389 38.7373C97.5719 38.7113 97.5111 38.6716 97.4602 38.6208C97.3668 38.5121 97.3133 38.3748 97.3088 38.2315V36.826C97.3165 36.6899 97.3698 36.5604 97.4602 36.4583C97.5688 36.3649 97.7062 36.3115 97.8494 36.307H102.391Z" fill="#0F67AD"/>
<path d="M145.553 40.8266C145.433 40.7254 145.303 40.6383 145.163 40.5671C145.013 40.5008 144.852 40.4641 144.688 40.459C144.523 40.4611 144.361 40.498 144.212 40.5671C144.066 40.6269 143.934 40.715 143.823 40.8264C143.711 40.9378 143.623 41.0701 143.563 41.2158C143.492 41.3644 143.455 41.5269 143.455 41.6916C143.455 41.8562 143.492 42.0188 143.563 42.1673C143.624 42.3124 143.712 42.4445 143.823 42.5565C143.928 42.6806 144.061 42.7771 144.212 42.8376C144.363 42.8994 144.525 42.9288 144.688 42.9241C144.85 42.927 145.012 42.8976 145.163 42.8376C145.308 42.7659 145.439 42.6709 145.553 42.5565C145.663 42.4445 145.751 42.3124 145.812 42.1673C145.926 41.8604 145.926 41.5227 145.812 41.2158C145.751 41.0707 145.663 40.9386 145.553 40.8266Z" fill="#0F67AD"/>
<path d="M148.515 40.8266C148.403 40.7161 148.271 40.628 148.126 40.5671C147.977 40.4961 147.815 40.4592 147.65 40.4592C147.485 40.4592 147.323 40.4961 147.174 40.5671C147.029 40.628 146.897 40.7161 146.785 40.8266C146.668 40.9374 146.572 41.0695 146.504 41.2158C146.388 41.5223 146.388 41.8608 146.504 42.1673C146.572 42.3137 146.668 42.4458 146.785 42.5565C146.89 42.6806 147.024 42.7771 147.174 42.8377C147.481 42.952 147.819 42.952 148.126 42.8377C148.277 42.7771 148.41 42.6806 148.515 42.5565C148.626 42.4445 148.714 42.3124 148.775 42.1673C148.846 42.0188 148.882 41.8562 148.882 41.6916C148.882 41.5269 148.846 41.3644 148.775 41.2158C148.714 41.0707 148.626 40.9386 148.515 40.8266Z" fill="#0F67AD"/>
<path d="M152.818 40.8266C152.706 40.7161 152.574 40.628 152.429 40.5671C152.28 40.4961 152.118 40.4592 151.953 40.4592C151.789 40.4592 151.626 40.4961 151.478 40.5671C151.332 40.6269 151.199 40.715 151.088 40.8264C150.977 40.9378 150.889 41.0701 150.829 41.2158C150.758 41.3644 150.721 41.5269 150.721 41.6916C150.721 41.8562 150.758 42.0188 150.829 42.1673C150.89 42.3124 150.978 42.4445 151.088 42.5565C151.193 42.6806 151.327 42.7771 151.478 42.8377C151.784 42.952 152.122 42.952 152.429 42.8377C152.58 42.7771 152.713 42.6806 152.818 42.5565C152.929 42.4445 153.017 42.3124 153.078 42.1673C153.149 42.0188 153.186 41.8562 153.186 41.6916C153.186 41.5269 153.149 41.3644 153.078 41.2158C153.017 41.0707 152.929 40.9386 152.818 40.8266Z" fill="#0F67AD"/>
<path d="M167.674 29.8631C167.579 29.7598 167.447 29.6977 167.307 29.6901H165.901C165.828 29.691 165.756 29.7069 165.689 29.7366C165.622 29.7663 165.562 29.8094 165.512 29.8631C165.418 29.9631 165.364 30.0938 165.36 30.2307V36.3071H162.852V30.2307C162.851 30.1607 162.835 30.0917 162.805 30.0284C162.775 29.9651 162.732 29.9087 162.679 29.8631C162.635 29.8077 162.579 29.7632 162.516 29.7332C162.452 29.7031 162.382 29.6884 162.311 29.6901H160.906C160.836 29.6914 160.767 29.7075 160.703 29.7373C160.64 29.7671 160.584 29.81 160.538 29.8631C160.488 29.9098 160.448 29.9668 160.422 30.0303C160.396 30.0938 160.384 30.1621 160.387 30.2307V36.3071H157.857V30.2307C157.86 30.1621 157.847 30.0938 157.821 30.0303C157.795 29.9668 157.756 29.9098 157.705 29.8631C157.66 29.81 157.603 29.7671 157.54 29.7373C157.477 29.7075 157.408 29.6914 157.338 29.6901H155.911C155.844 29.6917 155.778 29.708 155.718 29.7379C155.658 29.7678 155.606 29.8105 155.565 29.8631C155.514 29.9098 155.475 29.9668 155.449 30.0303C155.423 30.0938 155.41 30.1621 155.413 30.2307V36.3071H153.186V30.2307C153.189 30.1621 153.177 30.0938 153.15 30.0303C153.124 29.9668 153.085 29.9098 153.035 29.8631C152.985 29.8094 152.925 29.7663 152.858 29.7366C152.791 29.7069 152.719 29.691 152.645 29.6901H151.261C151.188 29.691 151.116 29.7069 151.049 29.7366C150.982 29.7663 150.922 29.8094 150.872 29.8631C150.822 29.9098 150.782 29.9668 150.756 30.0303C150.73 30.0938 150.718 30.1621 150.721 30.2307V36.3071H147.261V30.2307C147.257 30.0938 147.203 29.9631 147.11 29.8631C147.06 29.8094 147 29.7663 146.933 29.7366C146.866 29.7069 146.794 29.691 146.72 29.6901H145.315C145.245 29.6914 145.176 29.7075 145.112 29.7373C145.049 29.7671 144.993 29.81 144.947 29.8631C144.897 29.9098 144.857 29.9668 144.831 30.0303C144.805 30.0938 144.793 30.1621 144.796 30.2307V36.3071H131.389V30.2307C131.392 30.1621 131.379 30.0938 131.353 30.0303C131.327 29.9668 131.288 29.9098 131.237 29.8631C131.142 29.7598 131.01 29.6977 130.87 29.6901H129.443C129.302 29.6977 129.17 29.7598 129.075 29.8631C128.981 29.9631 128.928 30.0938 128.924 30.2307V36.3071H126.415V30.2307C126.411 30.0938 126.357 29.9631 126.264 29.8631C126.214 29.8094 126.154 29.7663 126.087 29.7366C126.02 29.7069 125.948 29.691 125.875 29.6901H124.469C124.396 29.691 124.324 29.7069 124.257 29.7366C124.19 29.7663 124.13 29.8094 124.08 29.8631C124.03 29.9098 123.99 29.9668 123.964 30.0303C123.938 30.0938 123.926 30.1621 123.928 30.2307V36.3071H121.42V30.2307C121.423 30.1621 121.411 30.0938 121.385 30.0303C121.358 29.9668 121.319 29.9098 121.269 29.8631C121.219 29.8094 121.159 29.7663 121.092 29.7366C121.025 29.7069 120.953 29.691 120.879 29.6901H119.474C119.404 29.6914 119.335 29.7075 119.272 29.7373C119.208 29.7671 119.152 29.81 119.106 29.8631C119.056 29.9098 119.016 29.9668 118.99 30.0303C118.964 30.0938 118.952 30.1621 118.955 30.2307V38.0154C118.951 38.3998 118.915 38.7831 118.847 39.1615C118.778 39.5444 118.639 39.9111 118.436 40.2427C118.202 40.5789 117.891 40.8535 117.528 41.0428C117.053 41.2601 116.535 41.3637 116.014 41.3455C115.596 41.361 115.179 41.3024 114.781 41.1725C114.474 41.0664 114.188 40.9052 113.938 40.6968C113.705 40.4988 113.514 40.2562 113.376 39.9832C113.243 39.7071 113.141 39.4169 113.073 39.1182C112.991 38.8142 112.94 38.5027 112.922 38.1884C112.9 37.864 112.9 37.5613 112.9 37.2585V35.2042C112.892 35.0639 112.83 34.932 112.727 34.8366C112.681 34.7852 112.624 34.7448 112.561 34.7186C112.497 34.6923 112.428 34.681 112.359 34.6853H110.954C110.885 34.681 110.816 34.6923 110.753 34.7186C110.689 34.7448 110.632 34.7852 110.586 34.8366C110.537 34.8842 110.498 34.9414 110.472 35.0046C110.446 35.0679 110.433 35.1359 110.435 35.2042V36.3719C110.413 36.6314 110.413 36.8261 110.413 36.9558V37.2802C110.406 38.1103 110.5 38.9382 110.694 39.7453C110.874 40.4818 111.19 41.1784 111.624 41.7996C112.056 42.3949 112.618 42.8832 113.268 43.2268C114.699 43.9171 116.342 44.0256 117.852 43.5296C118.492 43.2791 119.085 42.9207 119.604 42.47C120.108 42.007 120.525 41.4578 120.836 40.8482C121.144 40.1945 121.334 39.4918 121.398 38.7722H165.36C165.72 38.7812 166.078 38.73 166.42 38.6209C166.713 38.515 166.979 38.3451 167.198 38.1235C167.423 37.8853 167.587 37.5958 167.674 37.2802C167.786 36.8791 167.837 36.4637 167.826 36.0476V30.2307C167.828 30.1621 167.816 30.0938 167.79 30.0303C167.764 29.9668 167.724 29.9098 167.674 29.8631Z" fill="#0F67AD"/>
<path d="M6.14128 11.7852V6.14127H10.0336C10.0714 6.14457 10.1094 6.13957 10.145 6.12661C10.1806 6.11365 10.2129 6.09305 10.2397 6.06626C10.2665 6.03947 10.2871 6.00713 10.3001 5.97152C10.313 5.93591 10.318 5.89791 10.3147 5.86016V0H0V17.9265H19.5483V23.5704H0V29.69H25.0192C25.197 29.69 25.3675 29.6194 25.4932 29.4937C25.6189 29.368 25.6895 29.1975 25.6895 29.0197V11.8284C25.6895 11.817 25.685 11.806 25.6769 11.7979C25.6688 11.7897 25.6578 11.7852 25.6463 11.7852H6.14128Z" fill="#0F67AD"/>
<path d="M34.9663 0H31.3335H13.407V6.14127H31.3335V35.2907H0V41.4103H31.3335H36.3935H37.4747V0H34.9663Z" fill="#2BADB2"/>
</svg>
